<?xml version="1.0" encoding="UTF-8"?>
<svg xmlns="http://www.w3.org/2000/svg" width="1280" height="720" viewBox="0 0 1280 720">
  <rect width="1280" height="720" fill="#F4F0E8"/>
  <rect x="72" y="72" width="1136" height="576" rx="28" fill="#FFFDFC" stroke="#D6D3D1"/>
  <rect x="72" y="72" width="220" height="576" rx="28" fill="#0E7490"/>
  <circle cx="182" cy="170" r="58" fill="none" stroke="#9ED9E3" stroke-width="10"/>
  <circle cx="182" cy="170" r="30" fill="none" stroke="#FFFFFF" stroke-width="6"/>
  <text x="145" y="182" font-family="Segoe UI, Arial, sans-serif" font-size="30" font-weight="700" fill="#FFFFFF">AI</text>
  <text x="340" y="150" font-family="Segoe UI, Arial, sans-serif" font-size="22" font-weight="700" fill="#0E7490"><tspan x="340" dy="0">PptxGenJS Demo</tspan></text>
  <text x="340" y="240" font-family="Segoe UI, Arial, sans-serif" font-size="54" font-weight="700" fill="#1F2937"><tspan x="340" dy="0">AI Agents Can Draft Real Slides</tspan></text>
  <text x="340" y="332" font-family="Segoe UI, Arial, sans-serif" font-size="28" font-weight="400" fill="#6B7280"><tspan x="340" dy="0">Codex や Claude に雑な箇条書きを渡しても、</tspan><tspan x="340" dy="37.800000000000004">PptxGenJS なら PowerPoint まで持っていきやすいです。</tspan></text>
  <rect x="340" y="430" width="540" height="8" rx="4" fill="#E76F51"/>
  
      <rect x="110" y="555" rx="20" ry="20" width="190" height="42" fill="#FFFFFF" stroke="#D6D3D1" />
      <text x="134" y="582" font-family="Segoe UI, Arial, sans-serif" font-size="20" fill="#0E7490">Node.js</text>
      <rect x="330" y="555" rx="20" ry="20" width="190" height="42" fill="#FFFFFF" stroke="#D6D3D1" />
      <text x="354" y="582" font-family="Segoe UI, Arial, sans-serif" font-size="20" fill="#0E7490">PowerPoint</text>
      <rect x="550" y="555" rx="20" ry="20" width="190" height="42" fill="#FFFFFF" stroke="#D6D3D1" />
      <text x="574" y="582" font-family="Segoe UI, Arial, sans-serif" font-size="20" fill="#0E7490">Japanese + English</text>
</svg>